<?xml version="1.0" standalone="no"?>
<!DOCTYPE svg PUBLIC "-//W3C//DTD SVG 20010904//EN"
 "http://www.w3.org/TR/2001/REC-SVG-20010904/DTD/svg10.dtd">
<svg version="1.0" xmlns="http://www.w3.org/2000/svg"
 width="232.000000pt" height="182.000000pt" viewBox="0 0 232.000000 182.000000"
 preserveAspectRatio="xMidYMid meet">

<g transform="translate(0.000000,182.000000) scale(0.100000,-0.100000)"
fill="#000000" stroke="none">
<path d="M1686 1738 c-39 -40 -100 -103 -135 -141 l-63 -67 -141 11 c-204 15
-409 13 -482 -5 l-60 -15 -95 92 c-185 180 -177 173 -200 152 -19 -17 -90
-215 -90 -252 0 -9 -12 -55 -26 -102 -22 -74 -34 -93 -86 -150 -133 -146 -208
-301 -208 -431 0 -76 -5 -88 -36 -82 -28 5 -54 -13 -54 -39 0 -22 29 -39 65
-39 22 0 30 -9 50 -55 41 -92 41 -98 -2 -126 -72 -46 -43 -99 37 -65 l35 14
54 -47 c54 -47 54 -49 42 -79 -28 -67 12 -111 54 -58 l20 25 65 -45 c240 -168
560 -237 928 -200 143 15 174 21 250 52 121 50 202 96 275 159 l64 54 26 -30
c28 -32 53 -35 71 -7 10 16 6 29 -31 99 -2 3 13 26 33 52 l36 46 44 -22 c34
-16 49 -19 62 -11 31 20 25 41 -22 73 l-45 31 18 43 c10 23 21 54 24 69 6 24
13 27 69 35 48 6 64 12 66 26 6 31 -17 47 -69 47 l-49 0 0 68 c0 76 -19 162
-51 225 -24 48 -129 197 -170 242 -19 21 -35 60 -54 130 -97 358 -109 395
-136 395 -6 0 -43 -33 -83 -72z m93 -143 c13 -44 34 -123 46 -175 13 -52 28
-107 34 -122 12 -32 86 -129 107 -141 23 -13 90 -119 118 -184 19 -47 25 -74
22 -115 -2 -29 -4 -69 -5 -90 -1 -34 -3 -37 -40 -43 -22 -4 -45 -13 -52 -21
-18 -22 7 -44 45 -41 26 2 30 -1 28 -18 -9 -52 -26 -70 -67 -70 -33 0 -41 -4
-43 -21 -2 -11 6 -28 18 -39 25 -23 25 -30 -1 -66 -16 -23 -24 -27 -34 -19 -8
7 -24 9 -35 5 -18 -6 -21 -12 -16 -39 5 -27 1 -37 -31 -68 -94 -90 -251 -175
-378 -204 -199 -46 -728 1 -880 79 -53 27 -215 145 -214 156 0 3 4 15 8 26 5
11 4 28 -1 38 -9 18 -43 23 -53 7 -9 -15 -17 -12 -49 16 l-28 25 21 20 c45 42
10 83 -50 59 -35 -15 -38 -12 -56 38 -20 58 -17 72 16 72 16 0 34 7 42 16 20
24 -1 47 -51 57 l-43 9 6 58 c15 138 109 321 221 429 34 32 56 62 56 75 0 24
87 332 100 355 6 12 34 -11 122 -98 l113 -113 120 6 c66 4 161 13 210 21 131
22 206 18 370 -15 24 -5 39 6 151 115 65 63 121 112 124 108 4 -5 17 -44 29
-88z"/>
<path d="M493 1078 c-13 -13 -23 -34 -23 -45 0 -53 72 -204 132 -276 67 -79
147 -107 308 -107 89 0 90 0 96 27 10 37 -10 143 -35 195 -41 85 -101 146
-180 186 -68 34 -83 37 -175 40 -96 4 -102 3 -123 -20z m170 -54 c3 -3 -10
-19 -28 -36 -19 -16 -37 -38 -40 -49 -4 -10 -10 -19 -15 -19 -10 0 -30 56 -30
86 0 22 4 24 53 24 30 0 56 -3 60 -6z m266 -239 c12 -31 21 -62 21 -70 0 -16
-41 -19 -120 -7 l-45 7 36 21 c22 13 44 38 55 63 11 22 22 41 26 41 4 0 16
-25 27 -55z"/>
<path d="M1603 1085 c-137 -37 -218 -105 -288 -239 -40 -77 -46 -97 -43 -140
l3 -51 83 -3 c139 -5 315 55 370 126 43 55 51 74 62 153 6 41 17 84 26 97 19
29 10 58 -19 66 -38 10 -140 5 -194 -9z m148 -85 c-1 -14 -10 -38 -18 -55
l-16 -30 -16 25 c-9 14 -26 35 -38 48 -13 13 -23 25 -23 27 0 5 67 12 95 11
15 -1 19 -7 16 -26z m-351 -152 c0 -24 34 -88 53 -100 19 -12 2 -19 -58 -25
-65 -7 -61 -17 -30 90 18 58 35 75 35 35z"/>
<path d="M981 596 c-15 -18 0 -59 31 -80 27 -19 74 -20 107 -2 21 12 28 11 55
-5 49 -30 99 -25 131 12 14 18 24 38 21 46 -4 8 -6 19 -6 24 0 19 -47 8 -70
-16 -13 -14 -29 -25 -36 -25 -7 0 -21 11 -32 25 -21 27 -62 34 -62 11 0 -14
-21 -26 -46 -26 -8 0 -24 11 -36 25 -24 28 -40 31 -57 11z"/>
</g>
</svg>
