<?xml version="1.0" standalone="no"?>
<!DOCTYPE svg PUBLIC "-//W3C//DTD SVG 20010904//EN"
 "http://www.w3.org/TR/2001/REC-SVG-20010904/DTD/svg10.dtd">
<svg version="1.0" xmlns="http://www.w3.org/2000/svg"
 width="119.000000pt" height="95.000000pt" viewBox="0 0 119.000000 95.000000"
 preserveAspectRatio="xMidYMid meet">

<g transform="translate(0.000000,95.000000) scale(0.100000,-0.100000)"
fill="#000000" stroke="none">
<path d="M1016 904 c-3 -9 -6 -36 -6 -60 0 -57 -22 -91 -69 -104 -68 -19 -83
-14 -121 40 -39 56 -90 96 -141 110 -105 31 -183 -8 -260 -129 -85 -134 -73
-124 -142 -116 -92 11 -115 33 -131 124 -7 38 -31 71 -53 71 -8 0 -25 -24 -39
-53 -30 -67 -43 -217 -22 -257 20 -37 100 -87 152 -94 25 -4 46 -11 46 -15 0
-5 -39 -86 -86 -180 -47 -94 -82 -176 -78 -182 5 -8 65 -9 213 -4 260 9 293
14 305 41 8 18 21 23 83 28 41 4 80 9 88 12 9 4 18 -2 22 -12 10 -28 21 -32
62 -24 20 5 101 14 180 21 94 9 145 17 148 26 3 6 -9 36 -26 65 -17 29 -46 85
-65 123 -19 39 -44 84 -55 100 -12 17 -21 35 -21 42 0 7 24 28 54 47 67 43 79
74 65 174 -21 149 -80 267 -103 206z m-339 -89 c23 -6 133 -121 133 -137 0 -5
13 -28 28 -51 58 -85 160 -263 171 -298 6 -19 27 -59 46 -89 19 -30 35 -57 35
-61 0 -3 -33 -9 -72 -13 -40 -4 -99 -9 -130 -13 l-58 -6 32 63 c27 55 31 72
30 138 -3 135 -35 202 -97 202 -38 0 -71 -29 -80 -69 -12 -56 -25 -44 -25 24
0 68 -30 222 -55 282 -21 50 -25 48 42 28z m-88 -33 c37 -73 72 -225 72 -317
0 -48 -2 -89 -5 -92 -2 -3 -12 23 -22 57 -20 73 -46 96 -98 86 -59 -11 -71
-35 -71 -140 1 -73 6 -105 28 -165 15 -41 27 -78 27 -83 0 -4 -26 -8 -57 -8
-32 0 -98 -7 -148 -15 -90 -15 -185 -20 -185 -10 0 3 25 46 55 96 30 50 82
146 116 213 34 66 70 133 81 148 10 15 20 42 21 61 5 53 121 205 159 207 4 0
16 -17 27 -38z m469 -115 c-3 -51 -4 -52 -51 -76 -26 -13 -54 -21 -62 -18 -8
4 -23 24 -34 46 l-21 40 54 15 c35 11 63 26 78 45 29 36 40 21 36 -52z m-958
34 c6 -25 26 -53 55 -80 41 -38 49 -41 100 -41 30 0 55 -3 55 -6 0 -3 -11 -25
-25 -48 -25 -43 -26 -43 -73 -38 -102 10 -146 49 -144 127 0 48 11 125 17 125
3 0 9 -17 15 -39z"/>
<path d="M524 736 c-10 -26 4 -48 28 -44 17 2 23 10 23 28 0 18 -6 26 -23 28
-13 2 -25 -3 -28 -12z"/>
<path d="M547 614 c-12 -13 -7 -62 7 -67 23 -9 48 16 44 44 -3 24 -35 38 -51
23z"/>
</g>
</svg>
