<?xml version="1.0" standalone="no"?>
<!DOCTYPE svg PUBLIC "-//W3C//DTD SVG 20010904//EN"
 "http://www.w3.org/TR/2001/REC-SVG-20010904/DTD/svg10.dtd">
<svg version="1.0" xmlns="http://www.w3.org/2000/svg"
 width="49.000000pt" height="101.000000pt" viewBox="0 0 49.000000 101.000000"
 preserveAspectRatio="xMidYMid meet">

<g transform="translate(0.000000,101.000000) scale(0.100000,-0.100000)"
fill="#000000" stroke="none">
<path d="M224 956 c-12 -49 43 -76 70 -33 15 24 -3 51 -37 55 -21 3 -28 -2
-33 -22z"/>
<path d="M136 894 c-9 -8 -16 -18 -16 -22 1 -39 63 -42 68 -3 6 37 -26 52 -52
25z"/>
<path d="M317 862 c-17 -18 -17 -20 2 -43 17 -21 22 -22 45 -11 22 10 27 18
24 40 -4 34 -45 43 -71 14z"/>
<path d="M224 745 l-25 -25 -28 21 c-28 20 -30 21 -65 4 -43 -21 -66 -59 -66
-112 0 -93 35 -145 110 -164 l48 -12 4 -51 c2 -28 0 -70 -5 -93 l-8 -42 -51
34 c-53 37 -98 45 -118 20 -18 -22 -5 -44 35 -61 20 -8 54 -31 76 -51 l41 -38
-6 -65 c-3 -36 -9 -75 -12 -87 -6 -21 -3 -23 30 -23 33 0 36 2 36 29 0 38 31
72 95 106 73 39 97 77 54 88 -25 7 -74 -9 -113 -36 l-29 -21 7 55 c4 30 13 92
19 139 l12 85 68 7 c103 10 137 53 137 173 0 63 -2 69 -34 101 -37 37 -69 43
-103 19 -18 -13 -22 -12 -38 5 -24 26 -41 25 -71 -5z m-54 -91 c19 -57 46 -71
55 -27 18 91 34 101 50 33 9 -38 15 -45 35 -45 17 0 26 8 33 30 17 52 29 60
49 35 10 -12 18 -34 18 -49 0 -33 -19 -101 -28 -102 -68 -7 -194 -6 -219 2
-42 13 -52 27 -59 82 -5 35 -2 53 10 72 23 35 37 28 56 -31z"/>
</g>
</svg>
